# Blender 3.3.1
# www.blender.org
mtllib apple2.mtl
o Sphere
v 0.013530 0.038562 -0.013530
v 0.025000 0.035355 -0.025000
v 0.032664 0.019134 -0.032664
v 0.034195 0.000000 -0.034195
v 0.030726 -0.019134 -0.030726
v 0.023542 -0.035355 -0.023542
v 0.015885 -0.046194 -0.015885
v 0.019134 0.038562 0.000000
v 0.035355 0.035355 0.000000
v 0.046194 0.019134 0.000000
v 0.048359 0.000000 0.000000
v 0.043452 -0.019134 -0.000000
v 0.033294 -0.035355 -0.000000
v 0.022464 -0.046194 0.000000
v 0.013530 0.038562 0.013530
v 0.025000 0.035355 0.025000
v 0.032664 0.019134 0.032664
v 0.034195 0.000000 0.034195
v 0.030726 -0.019134 0.030726
v 0.023542 -0.035355 0.023542
v 0.015885 -0.046194 0.015885
v 0.000000 0.038562 0.019134
v 0.000000 0.035355 0.035355
v 0.000000 0.019134 0.046194
v 0.000000 0.000000 0.048359
v 0.000000 -0.019134 0.043452
v -0.000000 -0.035355 0.033294
v 0.000000 -0.046194 0.022464
v -0.013530 0.038562 0.013530
v -0.025000 0.035355 0.025000
v -0.032664 0.019134 0.032664
v -0.034195 0.000000 0.034195
v -0.030726 -0.019134 0.030726
v -0.023542 -0.035355 0.023542
v -0.015885 -0.046194 0.015885
v -0.019134 0.038562 0.000000
v -0.035355 0.035355 0.000000
v -0.046194 0.019134 0.000000
v -0.048359 0.000000 0.000000
v -0.043452 -0.019134 -0.000000
v -0.033294 -0.035355 -0.000000
v -0.022464 -0.046194 0.000000
v -0.013530 0.038562 -0.013530
v -0.025000 0.035355 -0.025000
v -0.032664 0.019134 -0.032664
v -0.034195 0.000000 -0.034195
v -0.030726 -0.019134 -0.030726
v -0.023542 -0.035355 -0.023542
v -0.015885 -0.046194 -0.015885
v 0.000000 -0.039774 0.000000
v 0.000000 0.015657 0.000000
v 0.000000 0.038562 -0.019134
v 0.000000 0.035355 -0.035355
v 0.000000 0.019134 -0.046194
v 0.000000 0.000000 -0.048359
v 0.000000 -0.019134 -0.043452
v -0.000000 -0.035355 -0.033294
v 0.000000 -0.046194 -0.022464
v 0.016104 0.057776 0.000000
v -0.000308 0.047545 0.000000
vn -0.1131 -0.9553 0.2730
vn 0.3312 -0.5008 -0.7997
vn 0.3806 0.1040 -0.9189
vn 0.0801 0.9779 -0.1933
vn 0.2812 -0.6783 -0.6789
vn 0.3724 -0.2305 -0.8990
vn 0.3256 0.5253 -0.7862
vn -0.3029 0.6110 0.7314
vn 0.1933 0.9779 -0.0801
vn 0.6789 -0.6783 -0.2812
vn 0.8990 -0.2305 -0.3724
vn 0.7862 0.5253 -0.3256
vn -0.7314 0.6110 0.3029
vn -0.2730 -0.9553 0.1131
vn 0.7997 -0.5008 -0.3312
vn 0.9189 0.1040 -0.3806
vn 0.6789 -0.6783 0.2812
vn 0.8990 -0.2305 0.3724
vn 0.7862 0.5253 0.3256
vn -0.7314 0.6110 -0.3029
vn -0.2730 -0.9553 -0.1131
vn 0.7997 -0.5008 0.3312
vn 0.9189 0.1040 0.3806
vn 0.1933 0.9779 0.0801
vn -0.3029 0.6110 -0.7314
vn -0.1131 -0.9553 -0.2730
vn 0.3312 -0.5008 0.7997
vn 0.3806 0.1040 0.9189
vn 0.0801 0.9779 0.1933
vn 0.2812 -0.6783 0.6789
vn 0.3724 -0.2305 0.8990
vn 0.3256 0.5253 0.7862
vn -0.3312 -0.5008 0.7997
vn -0.3806 0.1040 0.9189
vn -0.0801 0.9779 0.1933
vn -0.2812 -0.6783 0.6789
vn -0.3724 -0.2305 0.8990
vn -0.3256 0.5253 0.7862
vn 0.3029 0.6110 -0.7314
vn 0.1131 -0.9553 -0.2730
vn -0.6789 -0.6783 0.2812
vn -0.8990 -0.2305 0.3724
vn -0.7862 0.5253 0.3256
vn 0.7314 0.6110 -0.3029
vn 0.2730 -0.9553 -0.1131
vn -0.7997 -0.5008 0.3312
vn -0.9189 0.1040 0.3806
vn -0.1933 0.9779 0.0801
vn -0.8990 -0.2305 -0.3724
vn -0.7862 0.5253 -0.3256
vn 0.7314 0.6110 0.3029
vn 0.2730 -0.9553 0.1131
vn -0.7997 -0.5008 -0.3312
vn -0.9189 0.1040 -0.3806
vn -0.1933 0.9779 -0.0801
vn -0.6789 -0.6783 -0.2812
vn 0.1131 -0.9553 0.2730
vn -0.3312 -0.5008 -0.7997
vn -0.3806 0.1040 -0.9189
vn -0.0801 0.9779 -0.1933
vn -0.2812 -0.6783 -0.6789
vn -0.3724 -0.2305 -0.8990
vn -0.3256 0.5253 -0.7862
vn 0.3029 0.6110 0.7314
vn -0.0000 -0.0000 1.0000
vt 0.645210 0.759663
vt 0.707755 0.625229
vt 0.707755 0.736347
vt 0.749547 0.618411
vt 0.757896 0.479295
vt 0.738976 0.340180
vt 0.699806 0.222243
vt 0.658050 0.143441
vt 0.675770 0.759663
vt 0.764222 0.625229
vt 0.764222 0.736347
vt 0.823324 0.618411
vt 0.835132 0.479295
vt 0.808374 0.340180
vt 0.752981 0.222243
vt 0.693928 0.143441
vt 0.645210 0.759663
vt 0.707755 0.625229
vt 0.707755 0.736347
vt 0.749547 0.618411
vt 0.757896 0.479295
vt 0.738976 0.340180
vt 0.699806 0.222243
vt 0.658050 0.143441
vt 0.571433 0.759663
vt 0.571433 0.625229
vt 0.571433 0.736347
vt 0.571433 0.618411
vt 0.571433 0.479295
vt 0.571433 0.340180
vt 0.571433 0.222243
vt 0.571433 0.143441
vt 0.497656 0.759663
vt 0.435111 0.736347
vt 0.435111 0.625229
vt 0.393319 0.618411
vt 0.384970 0.479295
vt 0.403890 0.340180
vt 0.443060 0.222243
vt 0.484816 0.143441
vt 0.467096 0.759663
vt 0.378644 0.625229
vt 0.378644 0.736347
vt 0.319542 0.618411
vt 0.307735 0.479295
vt 0.334492 0.340180
vt 0.389886 0.222243
vt 0.448938 0.143441
vt 0.497656 0.759663
vt 0.435111 0.625229
vt 0.435111 0.736347
vt 0.393319 0.618411
vt 0.384970 0.479295
vt 0.403890 0.340180
vt 0.443060 0.222243
vt 0.484816 0.143441
vt 0.571433 0.301239
vt 0.571433 0.593132
vt 0.416450 0.935201
vt 0.571433 0.759663
vt 0.571433 0.625229
vt 0.571433 0.736347
vt 0.571433 0.618411
vt 0.571433 0.479295
vt 0.571433 0.340180
vt 0.571433 0.222243
vt 0.571433 0.143441
vt 0.060895 0.663787
vt 0.338001 0.708243
s 0
usemtl Material.001
f 50/57/1 58/67/1 7/8/1
f 56/65/2 6/7/2 57/66/2
f 54/63/3 4/5/3 55/64/3
f 52/60/4 2/2/4 53/61/4
f 57/66/5 7/8/5 58/67/5
f 55/64/6 5/6/6 56/65/6
f 54/63/7 2/3/7 3/4/7
f 52/60/8 51/58/8 1/1/8
f 1/1/9 9/10/9 2/2/9
f 6/7/10 14/16/10 7/8/10
f 4/5/11 12/14/11 5/6/11
f 3/4/12 9/11/12 10/12/12
f 1/1/13 51/58/13 8/9/13
f 50/57/14 7/8/14 14/16/14
f 5/6/15 13/15/15 6/7/15
f 3/4/16 11/13/16 4/5/16
f 13/15/17 21/24/17 14/16/17
f 11/13/18 19/22/18 12/14/18
f 10/12/19 16/19/19 17/20/19
f 8/9/20 51/58/20 15/17/20
f 50/57/21 14/16/21 21/24/21
f 13/15/22 19/22/22 20/23/22
f 10/12/23 18/21/23 11/13/23
f 8/9/24 16/18/24 9/10/24
f 15/17/25 51/58/25 22/25/25
f 50/57/26 21/24/26 28/32/26
f 20/23/27 26/30/27 27/31/27
f 17/20/28 25/29/28 18/21/28
f 16/18/29 22/25/29 23/26/29
f 20/23/30 28/32/30 21/24/30
f 19/22/31 25/29/31 26/30/31
f 16/19/32 24/28/32 17/20/32
f 27/31/33 33/38/33 34/39/33
f 24/28/34 32/37/34 25/29/34
f 22/25/35 30/35/35 23/26/35
f 27/31/36 35/40/36 28/32/36
f 25/29/37 33/38/37 26/30/37
f 23/27/38 31/36/38 24/28/38
f 22/25/39 51/58/39 29/33/39
f 50/57/40 28/32/40 35/40/40
f 34/39/41 42/48/41 35/40/41
f 33/38/42 39/45/42 40/46/42
f 30/34/43 38/44/43 31/36/43
f 29/33/44 51/58/44 36/41/44
f 50/57/45 35/40/45 42/48/45
f 34/39/46 40/46/46 41/47/46
f 31/36/47 39/45/47 32/37/47
f 30/35/48 36/41/48 37/42/48
f 39/45/49 47/54/49 40/46/49
f 37/43/50 45/52/50 38/44/50
f 36/41/51 51/58/51 43/49/51
f 50/57/52 42/48/52 49/56/52
f 41/47/53 47/54/53 48/55/53
f 38/44/54 46/53/54 39/45/54
f 36/41/55 44/50/55 37/42/55
f 41/47/56 49/56/56 42/48/56
f 50/57/57 49/56/57 58/67/57
f 48/55/58 56/65/58 57/66/58
f 45/52/59 55/64/59 46/53/59
f 44/50/60 52/60/60 53/61/60
f 48/55/61 58/67/61 49/56/61
f 47/54/62 55/64/62 56/65/62
f 44/51/63 54/63/63 45/52/63
f 43/49/64 51/58/64 52/60/64
f 60/69/65 51/59/65 59/68/65
f 56/65/2 5/6/2 6/7/2
f 54/63/3 3/4/3 4/5/3
f 52/60/4 1/1/4 2/2/4
f 57/66/5 6/7/5 7/8/5
f 55/64/6 4/5/6 5/6/6
f 54/63/7 53/62/7 2/3/7
f 1/1/9 8/9/9 9/10/9
f 6/7/10 13/15/10 14/16/10
f 4/5/11 11/13/11 12/14/11
f 3/4/12 2/3/12 9/11/12
f 5/6/15 12/14/15 13/15/15
f 3/4/16 10/12/16 11/13/16
f 13/15/17 20/23/17 21/24/17
f 11/13/18 18/21/18 19/22/18
f 10/12/19 9/11/19 16/19/19
f 13/15/22 12/14/22 19/22/22
f 10/12/23 17/20/23 18/21/23
f 8/9/24 15/17/24 16/18/24
f 20/23/27 19/22/27 26/30/27
f 17/20/28 24/28/28 25/29/28
f 16/18/29 15/17/29 22/25/29
f 20/23/30 27/31/30 28/32/30
f 19/22/31 18/21/31 25/29/31
f 16/19/32 23/27/32 24/28/32
f 27/31/33 26/30/33 33/38/33
f 24/28/34 31/36/34 32/37/34
f 22/25/35 29/33/35 30/35/35
f 27/31/36 34/39/36 35/40/36
f 25/29/37 32/37/37 33/38/37
f 23/27/38 30/34/38 31/36/38
f 34/39/41 41/47/41 42/48/41
f 33/38/42 32/37/42 39/45/42
f 30/34/43 37/43/43 38/44/43
f 34/39/46 33/38/46 40/46/46
f 31/36/47 38/44/47 39/45/47
f 30/35/48 29/33/48 36/41/48
f 39/45/49 46/53/49 47/54/49
f 37/43/50 44/51/50 45/52/50
f 41/47/53 40/46/53 47/54/53
f 38/44/54 45/52/54 46/53/54
f 36/41/55 43/49/55 44/50/55
f 41/47/56 48/55/56 49/56/56
f 48/55/58 47/54/58 56/65/58
f 45/52/59 54/63/59 55/64/59
f 44/50/60 43/49/60 52/60/60
f 48/55/61 57/66/61 58/67/61
f 47/54/62 46/53/62 55/64/62
f 44/51/63 53/62/63 54/63/63
